<?xml version="1.0" encoding="UTF-8" standalone="no"?>
<!DOCTYPE svg PUBLIC "-//W3C//DTD SVG 1.1//EN" "http://www.w3.org/Graphics/SVG/1.1/DTD/svg11.dtd">
<svg width="100%" height="100%" viewBox="0 0 400 145" version="1.1" xmlns="http://www.w3.org/2000/svg" xmlns:xlink="http://www.w3.org/1999/xlink" xml:space="preserve" style="fill-rule:evenodd;clip-rule:evenodd;stroke-linecap:round;stroke-linejoin:round;stroke-miterlimit:1.5;">
    <g transform="matrix(0.156815,0,0,0.156601,309.568,72.6782)">
        <path d="M0,-1.437C-10.547,-10.475 -20.941,-19.379 -31.331,-28.285C-53.207,-47.036 -75.068,-65.803 -96.966,-84.527C-101.538,-88.437 -104.09,-93.206 -103.313,-99.283C-102.524,-105.449 -99.181,-109.905 -93.352,-112.231C-87.357,-114.624 -81.812,-113.517 -76.95,-109.4C-67.146,-101.1 -57.423,-92.703 -47.667,-84.346C-20.573,-61.141 6.5,-37.912 33.631,-14.752C39.011,-10.16 42.03,-4.608 39.928,2.358C38.942,5.625 36.816,9.036 34.238,11.259C-2.975,43.355 -40.339,75.276 -77.702,107.198C-84.711,113.187 -94.726,112.34 -100.428,105.463C-106.292,98.391 -105.266,88.846 -97.903,82.535C-66.082,55.262 -34.247,28.005 -2.42,0.739C-1.674,0.101 -0.958,-0.573 0,-1.437" style="fill:white;fill-rule:nonzero;"/>
    </g>
    <g transform="matrix(1,0,0,1,105.581,-406.5)">
        <circle cx="199" cy="479" r="53" style="fill:none;stroke:rgb(136,207,1);stroke-width:6.25px;"/>
    </g>
    <g transform="matrix(1.30991,0,0,1.30991,43.9087,-554.947)">
        <circle cx="199" cy="479" r="53" style="fill:none;stroke:rgb(235,235,235);stroke-width:4.77px;"/>
    </g>
    <g transform="matrix(1,0,0,1,-74.4697,-406.5)">
        <circle cx="199" cy="479" r="53" style="fill:none;stroke:rgb(235,235,235);stroke-width:7.68px;"/>
    </g>
    <g transform="matrix(-0.156751,-1.91965e-17,1.91861e-17,-0.156666,119.545,72.3219)">
        <path d="M0,-1.437C-10.547,-10.475 -20.941,-19.379 -31.331,-28.285C-53.207,-47.036 -75.068,-65.803 -96.966,-84.527C-101.538,-88.437 -104.09,-93.206 -103.313,-99.283C-102.524,-105.449 -99.181,-109.905 -93.352,-112.231C-87.357,-114.624 -81.812,-113.517 -76.95,-109.4C-67.146,-101.1 -57.423,-92.703 -47.667,-84.346C-20.573,-61.141 6.5,-37.912 33.631,-14.752C39.011,-10.16 42.03,-4.608 39.928,2.358C38.942,5.625 36.816,9.036 34.238,11.259C-2.975,43.355 -40.339,75.276 -77.702,107.198C-84.711,113.187 -94.726,112.34 -100.428,105.463C-106.292,98.391 -105.266,88.846 -97.903,82.535C-66.082,55.262 -34.247,28.005 -2.42,0.739C-1.674,0.101 -0.958,-0.573 0,-1.437" style="fill:white;fill-rule:nonzero;"/>
    </g>
</svg>
