<?xml version="1.0" encoding="UTF-8" standalone="no"?>
<!DOCTYPE svg PUBLIC "-//W3C//DTD SVG 1.1//EN" "http://www.w3.org/Graphics/SVG/1.1/DTD/svg11.dtd">
<svg width="100%" height="100%" viewBox="0 0 254 77" version="1.1" xmlns="http://www.w3.org/2000/svg" xmlns:xlink="http://www.w3.org/1999/xlink" xml:space="preserve" style="fill-rule:evenodd;clip-rule:evenodd;stroke-linejoin:round;stroke-miterlimit:1.41421;">
    <g id="Layer.-14" transform="matrix(0.208877,0.0004906,-0.0004906,0.208877,3.23686,-0.0732131)">
        <g transform="matrix(1,0,0,1,0,262.445)">
            <path d="M0,16.106C0.882,15.421 1.843,14.818 2.634,14.041C24.24,-7.188 45.829,-28.432 67.418,-49.677C90.302,-72.198 117.2,-77.682 147.454,-68.296C153.418,-66.446 158.956,-62.907 165,-61.715C172.35,-60.267 180.02,-60.278 187.564,-60.024C197.685,-59.684 207.841,-60.077 217.936,-59.431C225.829,-58.926 232.87,-55.592 237.802,-49.148C247.609,-36.336 242.79,-19.113 227.742,-12.263C222.449,-9.853 216.934,-8.877 211.149,-8.903C197.519,-8.965 183.889,-8.923 170.259,-8.923L165.783,-8.923C170.461,-4.338 174.361,-0.412 178.413,3.35C179.044,3.935 180.371,3.924 181.377,3.925C196.755,3.948 212.133,3.986 227.509,3.833C229.19,3.816 231.101,2.974 232.498,1.957C260.154,-18.185 287.647,-38.55 315.413,-58.538C324.726,-65.241 335.261,-68.174 346.726,-64.376C349.115,-63.584 351.474,-62.407 353.525,-60.953C359.351,-56.823 359.427,-48.702 353.659,-43.424C346.442,-36.819 339.067,-30.386 331.752,-23.889C307.63,-2.463 283.437,18.884 259.408,40.414C248.291,50.375 235.426,55.1 220.575,55.071C182.248,54.997 143.92,55.071 105.593,54.99C103.105,54.984 101.632,55.675 100.248,57.797C92.561,69.577 84.703,81.245 76.348,93.788C50.737,67.964 25.368,42.384 0,16.805L0,16.106" style="fill:white;fill-rule:nonzero;"/>
        </g>
        <g transform="matrix(1,0,0,1,222.533,160.968)">
            <path d="M0,-133.479C-14.934,-126.256 -25.203,-114.964 -29.464,-98.67C-30.604,-94.311 -31.039,-89.752 -31.578,-85.259C-31.924,-82.379 -33.191,-80.359 -35.987,-79.664C-38.975,-78.92 -41.054,-80.33 -42.668,-82.862C-59.672,-109.542 -47.902,-141.182 -17.474,-150.826C-4.811,-154.839 8.36,-155.381 21.356,-157.209C27.01,-158.004 32.544,-159.652 38.373,-160.968C40.649,-146.086 43.281,-130.321 40.487,-114.179C37.932,-99.419 32.027,-86.431 21.228,-75.949C14.772,-69.682 7.236,-65.251 -1.921,-64C-2.816,-63.878 -4.174,-62.621 -4.261,-61.781C-6.126,-43.848 -7.84,-25.9 -9.007,-7.67C-1.391,-15.52 6.842,-22.11 16.426,-26.848C26.082,-31.623 36.403,-34.077 47.14,-35.007C35.932,-37.085 24.866,-36.856 13.898,-33.943C13.112,-33.735 12.324,-33.389 11.533,-33.376C9.558,-33.344 6.213,-32.874 5.877,-33.647C5.072,-35.504 5.112,-38.171 5.809,-40.162C9.791,-51.54 23.691,-60.358 36.367,-60.122C45.332,-59.954 53.202,-56.806 60.336,-51.717C68.178,-46.124 75.822,-40.255 83.661,-34.425C77.522,-25.496 71.488,-16.276 65.006,-7.384C49.709,13.6 25,11.444 11.319,-3.094C5.313,1.768 0.686,7.731 -2.921,14.533C-4.008,16.583 -4.926,18.735 -6.14,20.705C-8.835,25.076 -14.347,27.489 -19.024,26.515C-24.333,25.409 -28.685,21.219 -29.013,15.789C-29.369,9.883 -29.046,3.924 -28.789,-2.002C-27.817,-24.455 -26.817,-46.926 -22.572,-69.059C-19.73,-83.878 -17.114,-98.83 -10.805,-112.695C-8.173,-118.481 -4.719,-123.894 -1.597,-129.453C-0.929,-130.643 -0.082,-131.732 0.682,-132.868C0.455,-133.071 0.227,-133.275 0,-133.479" style="fill:white;fill-rule:nonzero;"/>
        </g>
        <g transform="matrix(1,0,0,1,134.04,141.053)">
            <path d="M0,-15.757C8.024,-13.954 15.367,-12.798 22.37,-10.572C27.841,-8.833 33.126,-6.16 38.069,-3.196C45.463,1.238 46.718,8.611 41.472,15.58C34.622,24.678 25.044,28.138 13.949,27.85C2.993,27.566 -5.31,22.07 -11.793,13.765C-16.29,8.005 -20.178,1.77 -24.319,-4.266C-26.683,-7.712 -29.01,-11.184 -31.657,-15.091C-21.093,-22.145 -10.892,-30.204 0.408,-36.189C14.959,-43.895 31.447,-40.435 41.129,-28.984C43.916,-25.689 45.825,-21.558 47.636,-17.582C48.245,-16.244 47.905,-13.489 46.922,-12.662C45.727,-11.657 43.173,-11.345 41.59,-11.877C33.594,-14.563 25.48,-16.526 17.029,-16.532C11.59,-16.536 6.15,-16.055 0,-15.757" style="fill:white;fill-rule:nonzero;"/>
        </g>
    </g>
    <g transform="matrix(0.199459,1.73472e-18,-1.73472e-18,0.199459,95.9002,6.51903)">
        <g transform="matrix(1,3.08149e-33,-3.08149e-33,1,21.3166,-16.2043)">
            <path d="M0,356.395C0.182,352.249 0.364,348.102 0.556,343.717L38.547,343.717C39.309,328.568 45.811,316.853 59.146,309.798C72.355,302.811 85.556,304.013 97.879,311.447C102.401,306.32 106.598,301.063 111.323,296.335C117.058,290.596 124.062,286.605 131.709,283.929C134.052,283.109 134.556,281.931 134.549,279.642C134.468,255.656 134.563,231.67 134.481,207.684C134.388,180.192 134.79,152.697 137.823,125.368C139.511,110.163 142.76,95.132 145.299,80.021C145.374,79.577 145.378,79.121 144.808,78.239C143.989,79.32 143.122,80.369 142.357,81.488C129.791,99.865 120.763,119.882 114.679,141.262C114.393,142.266 114.114,143.273 113.824,144.276C112.784,147.879 110.758,150.56 106.879,151.309C103.003,152.058 100.193,150.262 97.806,147.381C82.288,128.649 77.17,107.319 82.658,83.735C85.469,71.657 91.826,61.02 100.151,51.967C109.587,41.706 119.754,32.104 129.79,22.411C137.893,14.585 146.275,7.047 153.867,0C166.25,11.755 179.052,23.94 191.89,36.088C207.344,50.712 219.306,67.548 223.128,88.88C228.095,116.602 219.429,139.722 197.242,157.092C190.774,162.156 182.799,165.305 175.472,169.251C174.031,170.027 172.697,170.365 172.709,172.59C172.817,192.151 172.778,211.713 172.791,231.275C172.791,231.482 172.914,231.689 173.143,232.415C187.306,225.018 202.152,219.623 217.568,215.759C233.003,211.891 248.679,210.916 264.547,211.945C264.614,211.611 264.68,211.277 264.746,210.943C260.109,209.073 255.515,207.084 250.825,205.355C238.226,200.712 225.176,197.95 211.856,196.46C208.119,196.042 205.065,194.824 203.695,191.029C202.398,187.433 204.152,184.83 206.492,182.302C222.889,164.582 245.546,159.878 268.266,170.077C275.75,173.437 282.879,177.7 289.855,182.055C299.795,188.26 309.444,194.932 319.338,201.483C308.205,217.282 300.942,236.183 287.893,251.575C265.621,277.848 228.885,279.19 206.008,253.964C205.696,253.619 205.445,253.218 205.21,252.902C197.28,257.315 184.06,273.831 179.355,285.177C191.736,290.987 201.594,299.721 208.741,311.817C221.544,304.088 234.854,302.739 248.159,309.774C261.48,316.817 268.015,328.506 268.763,343.682L306.738,343.682L306.738,356.395L0,356.395Z" style="fill:white;fill-rule:nonzero;"/>
        </g>
        <g transform="matrix(1,1.54074e-33,-1.54074e-33,1,52.1347,237.89)">
            <path d="M0,-26.95C16.426,-25.706 31.182,-21.878 45.329,-15.731C50.009,-13.698 54.655,-11.551 59.174,-9.185C69.448,-3.805 71.519,8.122 63.854,17.035C42.147,42.281 7.239,43.676 -16.44,19.812C-23.036,13.164 -28.634,5.479 -34.319,-2.012C-40.55,-10.223 -46.353,-18.759 -52.135,-26.863C-39.737,-36.841 -27.317,-47.334 -14.36,-57.117C-2.645,-65.963 10.793,-70.626 25.667,-69.983C43.767,-69.201 57.398,-60.529 67.223,-45.586C69.378,-42.309 69.382,-38.749 67.187,-35.419C64.893,-31.938 61.481,-31.085 57.463,-31.294C48.177,-31.776 38.842,-32.705 29.596,-32.199C20.954,-31.726 12.398,-29.653 3.813,-28.236C2.835,-28.075 1.908,-27.605 0,-26.95" style="fill:white;fill-rule:nonzero;"/>
        </g>
    </g>
    <g transform="matrix(1,0,0,1,811.41,0.727748)">
        <g transform="matrix(0.197029,0,0,0.197029,-612.377,-1.17002)">
            <path d="M0,385.74C-0.972,385.326 -1.911,384.789 -2.921,384.515C-27.334,377.893 -39.174,352.444 -28.615,329.483C-27.619,327.318 -27.023,324.759 -27.016,322.38C-26.915,288.068 -26.949,253.755 -26.945,219.442C-26.944,210.244 -22.71,206.067 -13.411,206.06C-10.562,206.058 -7.713,206.06 -4.676,206.06L-4.676,182.852C-14.386,182.852 -24.076,182.892 -33.765,182.842C-47.429,182.771 -57.881,174.016 -60.284,160.666C-60.525,159.325 -60.623,157.941 -60.623,156.576C-60.642,109.162 -60.661,61.748 -60.623,14.334C-60.616,5.656 -52.569,0 -45.028,3.35C-40.517,5.353 -38.21,9.024 -38.188,14.006C-38.159,20.494 -38.178,26.983 -38.178,33.471C-38.178,73.648 -38.179,113.825 -38.177,154.002C-38.177,159.643 -37.415,160.389 -31.674,160.391C-22.718,160.393 -13.763,160.391 -4.483,160.391L-4.483,156.123C-4.483,109.333 -4.492,62.542 -4.452,15.752C-4.451,13.789 -4.305,11.727 -3.702,9.882C-2.098,4.97 2.965,1.894 7.981,2.476C13.197,3.08 17.418,7.339 17.921,12.591C18.052,13.952 17.98,15.334 17.98,16.706C17.982,63.122 17.981,109.537 17.981,155.953L17.981,160.373C28.128,160.373 38.07,160.512 47.998,160.198C49.26,160.158 50.624,157.858 51.589,156.376C52.046,155.673 51.676,154.43 51.676,153.432C51.677,107.64 51.668,61.848 51.704,16.056C51.706,14.09 51.814,12.034 52.383,10.175C53.955,5.04 59.057,1.846 64.211,2.481C69.571,3.142 73.75,7.581 74.112,13.034C74.178,14.028 74.14,15.029 74.14,16.028C74.141,62.069 74.144,108.111 74.139,154.152C74.137,172.06 63.402,182.843 45.588,182.851C36.504,182.855 27.421,182.852 18.16,182.852L18.16,206.06C21.434,206.06 24.641,206.047 27.849,206.063C35.811,206.101 40.392,210.618 40.396,218.563C40.417,253.001 40.369,287.439 40.477,321.876C40.485,324.503 41.075,327.318 42.131,329.723C52.348,353.012 40.255,378.593 16.058,384.616C14.691,384.957 13.339,385.364 11.981,385.74L0,385.74Z" style="fill:white;fill-rule:nonzero;"/>
        </g>
        <g transform="matrix(0.197029,0,0,0.197029,-574.904,43.694)">
            <path d="M0,158.037C-0.935,157.569 -1.823,156.934 -2.811,156.656C-26.498,149.998 -38.21,124.741 -28.147,102.286C-26.979,99.68 -26.323,96.62 -26.299,93.763C-26.14,74.572 -26.224,55.379 -26.212,36.187C-26.207,27.682 -21.834,23.3 -13.375,23.278C-10.283,23.27 -7.19,23.277 -3.681,23.277L-3.681,0.004L-3.797,0.116C3.726,0.117 11.249,0.117 18.772,0.117L18.651,0L18.651,23.277C22.003,23.277 25.185,23.268 28.366,23.279C36.57,23.307 41.112,27.775 41.123,35.933C41.147,55.247 41.056,74.561 41.211,93.873C41.234,96.736 41.887,99.785 43.017,102.417C52.953,125.547 40.814,150.897 16.791,156.901C15.428,157.242 14.083,157.657 12.729,158.037L0,158.037Z" style="fill:white;fill-rule:nonzero;"/>
        </g>
        <g transform="matrix(0.197029,0,0,0.197029,-575.629,-0.969819)">
            <path d="M0,226.691C-14.342,226.713 -28.689,226.992 -43.024,226.679C-55.833,226.4 -67.188,215.22 -67.285,202.247C-67.474,176.941 -68.418,151.524 -66.521,126.343C-62.722,75.907 -39.191,35.785 1.469,5.749C9.66,-0.301 12.697,-0.258 20.829,5.757C61.581,35.904 85.016,76.134 88.913,126.719C90.632,149.044 89.623,171.582 89.746,194.023C89.769,198.241 89.766,202.556 88.949,206.662C86.756,217.688 76.508,226.477 65.356,226.685C51.02,226.953 36.674,226.71 22.333,226.687L22.453,226.804C22.439,226.057 22.413,225.309 22.413,224.562C22.411,199.511 22.418,174.461 22.406,149.411C22.403,143.674 19.905,139.592 15.37,137.765C7.715,134.681 -0.019,140.28 -0.039,149.037C-0.098,174.959 -0.095,200.881 -0.116,226.803L0,226.691" style="fill:white;fill-rule:nonzero;"/>
        </g>
    </g>
</svg>
