<?xml version="1.0" encoding="UTF-8" standalone="no"?>
<!DOCTYPE svg PUBLIC "-//W3C//DTD SVG 1.1//EN" "http://www.w3.org/Graphics/SVG/1.1/DTD/svg11.dtd">
<svg width="100%" height="100%" viewBox="0 0 86 86" version="1.1" xmlns="http://www.w3.org/2000/svg" xmlns:xlink="http://www.w3.org/1999/xlink" xml:space="preserve" style="fill-rule:evenodd;clip-rule:evenodd;stroke-linejoin:round;stroke-miterlimit:1.41421;">
    <g transform="matrix(2.91499,0,0,2.91499,-0.0215,-0.0206255)">
        <clipPath id="_clip1">
            <path d="M14.621,0C6.547,0 0,6.547 0,14.622C0,22.696 6.547,29.243 14.621,29.243C22.696,29.243 29.243,22.696 29.243,14.622C29.243,6.547 22.696,0 14.621,0Z"/>
        </clipPath>
        <g clip-path="url(#_clip1)">
            <path d="M37.318,14.621L14.622,37.317L-8.074,14.621L14.622,-8.075L37.318,14.621Z" style="fill:url(#_Linear2);fill-rule:nonzero;"/>
        </g>
    </g>
    <g transform="matrix(2.91499,0,0,2.91499,-0.0215,-0.0206255)">
        <path d="M11.521,19.966L11.809,20.138C12.866,20.767 14.068,21.101 15.286,21.101C19.041,21.101 22.097,18.045 22.097,14.29C22.097,10.534 19.041,7.479 15.286,7.479C11.53,7.479 8.475,10.534 8.475,14.29C8.475,15.53 8.819,16.751 9.471,17.821L9.648,18.111L8.967,20.65L11.521,19.966ZM6.722,22.895L7.941,18.347C7.251,17.101 6.887,15.706 6.887,14.29C6.887,9.659 10.655,5.891 15.286,5.891C19.917,5.891 23.684,9.659 23.684,14.29C23.684,18.92 19.917,22.688 15.286,22.688C13.896,22.688 12.523,22.337 11.294,21.67L6.722,22.895Z" style="fill:white;fill-rule:nonzero;"/>
    </g>
    <g transform="matrix(2.91499,0,0,2.91499,-0.0215,-0.0206255)">
        <path d="M18.41,15.458C18.064,15.251 17.615,15.02 17.207,15.187C16.895,15.315 16.695,15.804 16.493,16.054C16.389,16.182 16.265,16.202 16.106,16.138C14.933,15.671 14.034,14.888 13.387,13.809C13.277,13.641 13.297,13.509 13.429,13.354C13.625,13.123 13.87,12.862 13.923,12.552C13.976,12.242 13.83,11.879 13.702,11.603C13.538,11.25 13.355,10.746 13.002,10.547C12.676,10.363 12.248,10.466 11.959,10.702C11.459,11.109 11.218,11.746 11.225,12.379C11.227,12.558 11.249,12.737 11.291,12.911C11.392,13.328 11.585,13.717 11.802,14.087C11.965,14.366 12.143,14.637 12.335,14.897C12.962,15.75 13.742,16.49 14.646,17.044C15.097,17.32 15.584,17.563 16.087,17.729C16.652,17.916 17.155,18.11 17.765,17.994C18.404,17.873 19.033,17.478 19.287,16.862C19.362,16.68 19.399,16.477 19.357,16.285C19.27,15.887 18.732,15.65 18.41,15.458" style="fill:white;"/>
    </g>
    <defs>
        <linearGradient id="_Linear2" x1="0" y1="0" x2="1" y2="0" gradientUnits="userSpaceOnUse" gradientTransform="matrix(-20.6777,20.6777,-20.6777,-20.6777,24.9603,4.28248)"><stop offset="0" style="stop-color:rgb(88,254,118);stop-opacity:1"/><stop offset="1" style="stop-color:rgb(69,178,94);stop-opacity:1"/></linearGradient>
    </defs>
</svg>
