<?xml version="1.0" encoding="UTF-8" standalone="no"?>
<!DOCTYPE svg PUBLIC "-//W3C//DTD SVG 1.1//EN" "http://www.w3.org/Graphics/SVG/1.1/DTD/svg11.dtd">
<svg width="100%" height="100%" viewBox="0 0 94 98" version="1.1" xmlns="http://www.w3.org/2000/svg" xmlns:xlink="http://www.w3.org/1999/xlink" xml:space="preserve" style="fill-rule:evenodd;clip-rule:evenodd;stroke-linejoin:round;stroke-miterlimit:1.41421;">
    <g transform="matrix(0.282656,0,0,0.282656,0.02033,-0.00246649)">
        <g>
            <g id="Layer-1">
                <path d="M165.372,128.842C154.038,128.685 143.492,127.846 133.534,123.573C121.762,118.522 116.138,109.985 116.645,97.206C117.194,83.35 121.625,70.787 130.825,60.257C149.685,38.669 182.967,39.827 200.308,62.641C208.486,73.4 212.48,85.709 212.541,99.19C212.587,109.444 207.881,117.113 198.861,121.987C188.198,127.748 176.496,128.558 165.372,128.842" style="fill:white;fill-rule:nonzero;"/>
                <path d="M104.052,261.597C144.816,284.182 184.408,284.251 224.99,261.643C224.401,268.601 223.914,274.971 223.261,281.324C223.177,282.141 222.397,283.127 221.66,283.601C203.364,295.379 183.68,303.263 161.566,302.346C141.925,301.532 124.139,294.462 107.784,283.752C106.975,283.223 106.177,282.104 106.066,281.177C105.315,274.915 104.752,268.631 104.052,261.597" style="fill:white;fill-rule:nonzero;"/>
                <path d="M164.61,164.737C153.002,164.737 141.393,164.755 129.785,164.731C121.961,164.714 116.494,159.666 116.574,152.603C116.652,145.675 122.038,140.788 129.706,140.782C152.923,140.763 176.139,140.764 199.356,140.781C207.179,140.787 212.651,145.84 212.571,152.9C212.492,159.795 207.068,164.713 199.435,164.73C187.827,164.756 176.218,164.737 164.61,164.737" style="fill:white;fill-rule:nonzero;"/>
                <path d="M217.271,231.209C218.833,236.698 220.405,241.782 221.622,246.95C221.819,247.785 220.668,249.314 219.747,249.977C209.055,257.678 197.044,262.369 184.15,264.687C158.509,269.297 134.234,265.688 111.959,251.7C105.701,247.77 106.817,249.369 108.471,242.656C109.386,238.94 110.742,235.332 112.025,231.282C147.089,254.284 181.979,254.321 217.271,231.209" style="fill:white;fill-rule:nonzero;"/>
                <path d="M112.277,300.456C129.737,308.921 146.908,314.683 165.539,314.44C184.071,314.198 201.152,308.268 218.258,299.786C215.04,307.985 210.74,314.578 205.37,320.459C195.113,331.693 182.442,339.109 167.921,343.433C166.464,343.867 164.618,344.127 163.271,343.623C142.442,335.84 125.266,323.475 113.967,303.885C113.492,303.063 113.123,302.182 112.277,300.456" style="fill:white;fill-rule:nonzero;"/>
                <path d="M212.682,219.685C181.809,242.053 147.223,242.03 116.506,219.672C118.476,215.386 120.358,210.956 122.6,206.716C123.012,205.937 124.988,205.42 126.064,205.642C135.577,207.607 145.004,210.017 154.547,211.807C167.13,214.168 179.378,211.339 191.564,208.562C196.172,207.511 200.726,206.22 205.86,204.895C208.1,209.752 210.364,214.66 212.682,219.685" style="fill:white;fill-rule:nonzero;"/>
                <path d="M322.466,314.817C321.18,318.668 319.976,322.271 318.695,326.107C311.929,323.888 305.397,321.876 298.992,319.518C297.949,319.134 297.181,317.311 296.775,316.003C289.41,292.254 282.071,268.497 274.878,244.696C274.04,241.924 272.619,240.399 270.008,239.24C256.018,233.029 242.083,226.691 228.212,220.22C226.615,219.475 225.119,217.846 224.291,216.256C222.125,212.093 220.356,207.725 218.045,202.587C223.467,205.029 228.141,207.124 232.808,209.236C248.681,216.42 264.533,223.648 280.44,230.753C282.675,231.751 283.885,233.117 284.599,235.464C291.797,259.134 299.131,282.764 306.339,306.432C307.049,308.762 308.067,310.199 310.575,310.871C314.515,311.926 318.337,313.421 322.466,314.817" style="fill:white;fill-rule:nonzero;"/>
                <path d="M111.082,202.628C108.509,208.338 106.371,213.318 103.984,218.176C103.522,219.115 102.162,219.743 101.088,220.235C86.948,226.709 72.811,233.192 58.602,239.512C56.33,240.522 55.131,241.849 54.417,244.196C47.182,267.983 39.787,291.722 32.616,315.528C31.748,318.409 30.291,319.757 27.515,320.57C21.914,322.21 16.414,324.194 10.486,326.164C9.2,322.346 7.993,318.763 6.685,314.882C10.604,313.538 14.278,312.064 18.074,311.048C20.782,310.323 22.06,308.951 22.882,306.231C30.034,282.551 37.332,258.914 44.726,235.308C45.206,233.774 46.562,232.002 47.978,231.349C68.316,221.969 88.734,212.762 109.132,203.513C109.521,203.337 109.909,203.161 111.082,202.628" style="fill:white;fill-rule:nonzero;"/>
                <path d="M164.47,176.716C177.325,176.716 190.18,176.707 203.034,176.72C208.573,176.725 211.991,179.245 212.525,183.655C213.039,187.901 210.556,191.083 205.223,192.479C196.434,194.78 187.61,196.948 178.778,199.076C166.41,202.055 154.238,200.27 142.154,197.304C135.872,195.761 129.623,194.075 123.381,192.375C118.575,191.066 116.036,187.64 116.63,183.482C117.22,179.348 120.595,176.736 125.531,176.725C138.511,176.698 151.49,176.716 164.47,176.716" style="fill:white;fill-rule:nonzero;"/>
                <path d="M111.034,169.247C108.907,174.859 105.224,174.95 100.245,173.922C85.712,170.921 71.04,168.597 56.454,165.839C54.035,165.381 52.667,165.803 51.172,167.831C42.221,179.978 32.692,191.724 24.206,204.181C19.363,211.29 12.571,214.605 5.187,217.881C3.46,214.451 1.789,211.132 0,207.58C0.751,207.079 1.374,206.467 2.122,206.198C8.347,203.957 12.607,199.605 16.438,194.307C26.009,181.069 36.074,168.189 45.731,155.011C47.434,152.687 49.048,152.28 51.608,152.756C69.27,156.045 86.954,159.212 104.611,162.528C105.757,162.744 106.93,163.699 107.738,164.618C109.044,166.103 110.057,167.843 111.034,169.247" style="fill:white;fill-rule:nonzero;"/>
                <path d="M218.251,170.089C220.04,162.931 225.451,162.195 230.959,161.243C246.695,158.523 262.408,155.661 278.095,152.674C280.623,152.192 281.877,152.993 283.281,154.881C293.625,168.789 304.174,182.548 314.416,196.53C317.233,200.375 320.421,203.373 324.842,205.113C326.218,205.655 327.504,206.424 329.232,207.29C327.508,210.802 325.837,214.206 323.957,218.037C317.629,214.401 310.79,212.419 306.219,205.805C297.292,192.888 287.443,180.608 278.073,167.992C276.659,166.087 275.469,165.332 272.883,165.834C257.455,168.83 241.961,171.483 226.524,174.431C223.366,175.034 221.032,174.804 219.562,171.634C219.211,170.877 218.446,170.31 218.251,170.089" style="fill:white;fill-rule:nonzero;"/>
                <path d="M27.954,78.724C31.086,76.111 33.947,73.724 37.119,71.078C39.639,74.053 42.112,76.942 44.551,79.86C51.11,87.709 57.596,95.62 64.261,103.379C65.379,104.681 67.126,105.762 68.786,106.232C81.248,109.764 93.78,113.055 106.238,116.604C107.835,117.059 109.346,118.366 110.526,119.625C113.74,123.055 116.756,126.672 120.453,130.904C118.291,130.968 116.183,131.497 114.343,131.012C96.641,126.35 78.976,121.544 61.329,116.675C60,116.308 58.616,115.375 57.722,114.315C47.825,102.591 38.021,90.789 27.954,78.724" style="fill:white;fill-rule:nonzero;"/>
                <path d="M292,71.041C295.211,73.732 298.148,76.193 301.186,78.738C291.033,90.918 281.085,102.904 271.038,114.807C270.236,115.758 268.83,116.403 267.581,116.746C249.925,121.598 232.26,126.422 214.554,131.09C212.782,131.557 210.729,130.958 208.933,130.861C212.656,126.385 215.92,122.345 219.341,118.442C220.078,117.601 221.316,117.024 222.431,116.715C235.031,113.214 247.669,109.854 260.244,106.271C262.008,105.768 263.852,104.584 265.04,103.19C274.024,92.655 282.853,81.989 292,71.041" style="fill:white;fill-rule:nonzero;"/>
                <path d="M237.294,5.65C240.833,3.894 244.25,2.198 248.682,-0.001C251.642,9.642 255.079,18.715 257.115,28.09C259.034,36.926 259.636,46.066 260.522,55.101C261.233,62.357 258.089,68.167 252.72,72.864C244.387,80.154 234.208,83.37 223.478,86.018C222.407,82.178 221.357,78.41 220.406,74.998C226.458,72.698 232.549,70.827 238.242,68.121C247.538,63.703 249.187,60.284 248.403,50.11C247.266,35.341 243.869,21.127 238.033,7.501C237.794,6.945 237.583,6.377 237.294,5.65" style="fill:white;fill-rule:nonzero;"/>
                <path d="M81.334,0.397C84.88,2.15 88.203,3.792 91.385,5.365C88.88,13.398 85.858,21.17 84.11,29.218C82.295,37.575 81.695,46.196 80.598,54.706C80,59.347 82.095,63.025 85.926,65.027C93.145,68.8 100.685,71.961 108.528,75.578C107.797,78.286 106.781,82.047 105.712,86.004C95.142,83.428 85.005,80.215 76.627,73.033C71.097,68.293 68.357,62.424 68.519,54.986C68.905,37.202 74.121,14.142 81.334,0.397" style="fill:white;fill-rule:nonzero;"/>
                <path d="M182.789,3.183C193.424,7.044 202.465,11.745 209.386,19.387C212.944,23.316 215.937,28.239 217.654,33.238C220.69,42.077 216.478,49.685 211.87,56.352C206.191,51.406 200.51,46.496 194.899,41.508C194.338,41.009 193.985,40.057 193.901,39.276C192.559,26.922 189.11,15.205 182.789,3.183" style="fill:white;fill-rule:nonzero;"/>
                <path d="M117.293,56.269C106.891,41.595 108.321,28.03 122.825,16.573C129.077,11.635 136.588,8.282 143.549,4.248C144.13,3.912 144.888,3.878 146.125,3.558C140.648,14.006 137.059,24.531 135.824,35.669C135.381,39.666 133.674,41.919 130.621,44.254C125.914,47.855 121.761,52.179 117.293,56.269" style="fill:white;fill-rule:nonzero;"/>
            </g>
        </g>
    </g>
</svg>
