<?xml version="1.0" encoding="UTF-8" standalone="no"?><!DOCTYPE svg PUBLIC "-//W3C//DTD SVG 1.1//EN" "http://www.w3.org/Graphics/SVG/1.1/DTD/svg11.dtd"><svg width="100%" height="100%" viewBox="0 0 84 132" version="1.1" xmlns="http://www.w3.org/2000/svg" xmlns:xlink="http://www.w3.org/1999/xlink" xml:space="preserve" style="fill-rule:evenodd;clip-rule:evenodd;stroke-linejoin:round;stroke-miterlimit:1.41421;"><path d="M41.14,131.3c-1.519,-1.928 -3.12,-3.797 -4.533,-5.8c-1.395,-1.977 -2.741,-4.016 -3.852,-6.161c-1.328,-2.564 -2.518,-5.219 -3.528,-7.924c-1.778,-4.757 -2.837,-9.654 -2.211,-14.796c0.692,-5.684 3.427,-10.011 8.415,-12.863c0.81,-0.463 1.587,-0.821 1.088,-2.006c-0.15,-0.358 -0.146,-0.927 0.041,-1.256c1.437,-2.53 -0.509,-4.408 -1.149,-6.73c-0.498,0.316 -0.883,0.542 -1.248,0.797c-2.121,1.481 -4.222,2.991 -6.36,4.447c-1.543,1.05 -3.157,1.997 -4.684,3.069c-0.295,0.207 -0.553,0.847 -0.454,1.175c1.034,3.424 0.817,6.938 0.852,10.435c0.047,4.527 0.089,9.054 0.159,13.581c0.009,0.547 0.133,1.104 0.28,1.636c0.232,0.84 0.504,1.617 -0.658,2.045c-0.224,0.082 -0.307,0.642 -0.389,0.997c-0.288,1.228 -0.3,2.566 -1.679,3.266c-0.281,0.142 -0.405,0.623 -0.568,0.963c-0.786,1.634 -2.248,2.895 -2.627,4.762c-0.041,0.204 -0.361,0.525 -0.519,0.506c-1.809,-0.207 -2.203,1.121 -2.681,2.384c-0.038,0.102 -0.181,0.165 -0.507,0.446c-0.162,-0.685 -0.464,-1.25 -0.382,-1.75c0.276,-1.674 0.98,-3.141 2.355,-4.256c0.446,-0.362 0.704,-0.963 1.021,-1.471c0.111,-0.175 0.077,-0.484 0.218,-0.591c1.789,-1.36 1.697,-3.851 3.248,-5.375c0.369,-0.362 0.534,-1.062 0.563,-1.618c0.364,-7.023 -0.295,-14.008 -0.845,-20.996c-0.138,-1.743 -0.432,-3.505 -0.286,-5.228c0.094,-1.109 0.673,-2.3 1.357,-3.214c2.428,-3.244 5.693,-5.475 9.281,-7.289c0.965,-0.488 1.875,-1.133 2.704,-1.832c0.985,-0.83 0.696,-1.908 -0.45,-2.462c-3.383,-1.637 -6.716,-3.376 -10.114,-4.977c-1.252,-0.59 -2.633,-0.908 -4.104,-1.401c-0.34,1.396 -0.542,2.648 -0.95,3.828c-1.852,5.354 -3.79,10.678 -5.632,16.035c-0.525,1.527 -0.83,3.128 -1.239,4.695c-0.231,0.884 -0.442,1.79 -1.626,1.878c-0.042,1.59 -0.779,2.61 -1.879,3.791c-1.04,1.116 -2.619,1.975 -3.05,3.717c-0.16,0.647 -0.572,1.333 -1.67,1.181c-0.518,-0.072 -1.187,0.648 -1.718,1.092c-0.267,0.224 -0.377,0.634 -0.558,0.959c-0.122,0.005 -0.244,0.009 -0.366,0.013c-0.074,-0.476 -0.311,-0.998 -0.192,-1.42c0.415,-1.469 1.229,-2.679 2.547,-3.551c0.525,-0.348 0.924,-0.903 1.335,-1.401c1.201,-1.457 2.435,-2.893 3.546,-4.417c0.663,-0.909 1.318,-1.91 1.636,-2.972c1.759,-5.879 3.34,-11.812 5.138,-17.678c0.783,-2.554 1.939,-4.993 2.925,-7.485c0.357,-0.902 1.126,-0.976 1.919,-0.896c4.438,0.449 8.592,1.729 12.311,4.26c0.421,0.287 0.821,0.604 1.475,1.087c0.221,-1.052 0.411,-1.952 0.603,-2.865c-3.094,-0.73 -5.178,-2.894 -7.068,-5.184c-4.035,-4.887 -7.479,-10.164 -10.008,-16.01c-0.225,-0.518 -0.828,-0.897 -1.307,-1.275c-1.713,-1.357 -3.587,-2.544 -5.133,-4.066c-1.428,-1.404 -2.488,-3.176 -3.755,-4.749c-1.255,-1.558 -1.279,-1.538 -3.971,-2.395c0.361,-1.449 2.752,-1.938 4.067,-0.785c1.031,0.904 1.971,1.827 2.39,3.28c0.248,0.858 0.426,2.203 1.9,2.2c0.086,0 0.184,0.169 0.258,0.272c1.594,2.2 3.93,3.519 6.025,5.132c0.793,0.61 1.56,1.364 2.07,2.213c2.415,4.02 4.665,8.14 7.125,12.131c0.998,1.618 2.337,3.037 3.609,4.468c0.696,0.782 1.589,1.123 2.762,0.969c0.691,-0.09 1.465,0.451 1.969,0.627c1.733,-2.289 3.51,-4.637 5.284,-6.98c-2.092,-0.35 -3.907,-1.549 -5.488,-3.255c-1.754,-1.893 -2.282,-4.125 -1.878,-6.519c0.388,-2.296 0.937,-4.607 1.774,-6.773c0.616,-1.595 0.458,-3.03 -0.122,-4.408c-1.732,-4.118 -3.337,-8.301 -6.176,-11.874c-0.686,-0.864 -0.863,-2.199 -1.085,-3.354c-0.726,-3.781 -1.343,-7.585 -0.671,-11.447c0.152,-0.874 0.415,-1.743 0.747,-2.567c0.308,-0.767 0.811,-1.524 1.801,-1.296c1.018,0.235 1.465,1.077 1.362,2.049c-0.157,1.482 -0.546,2.939 -0.694,4.421c-0.313,3.136 -0.565,6.279 -0.764,9.423c-0.034,0.552 0.181,1.228 0.51,1.678c2.575,3.518 4.165,7.517 5.75,11.524c0.601,1.518 1.114,1.555 2.187,0.326c0.717,-0.82 1.252,-1.619 1.404,-2.773c0.076,-0.582 0.907,-1.066 1.507,-1.713c0.602,2.144 0.609,2.207 3.03,1.916c0.44,-0.053 0.789,-0.862 1.352,-1.525c0.504,0.214 1.389,0.566 1.382,1.683c-0.009,1.451 1.127,2.174 1.904,3.06c0.464,0.529 1.157,0.155 1.453,-0.609c0.522,-1.35 1.023,-2.717 1.66,-4.014c1.104,-2.252 2.152,-4.555 3.514,-6.647c1.074,-1.651 1.546,-3.334 1.326,-5.199c-0.39,-3.304 -0.905,-6.594 -1.36,-9.891c-0.087,-0.632 -0.347,-1.341 -0.158,-1.887c0.236,-0.684 0.748,-1.531 1.342,-1.742c0.404,-0.144 1.488,0.561 1.683,1.099c0.531,1.465 1.108,3.062 1.023,4.57c-0.214,3.822 -0.739,7.629 -1.243,11.429c-0.094,0.709 -0.567,1.435 -1.036,2.015c-2.811,3.481 -4.269,7.656 -5.973,11.688c-0.542,1.282 -0.529,2.698 0.054,4.185c0.816,2.083 1.323,4.313 1.736,6.522c0.91,4.876 -2.75,8.514 -6.392,9.653c-0.387,0.121 -0.787,0.198 -0.985,0.246c1.767,2.322 3.531,4.64 5.223,6.861c0.82,-0.124 1.902,-0.191 2.922,-0.477c0.706,-0.199 1.516,-0.549 1.954,-1.093c1.763,-2.186 3.549,-4.379 5.046,-6.747c1.934,-3.059 3.51,-6.344 5.428,-9.415c0.736,-1.179 1.95,-2.077 3.011,-3.03c1.681,-1.51 3.746,-2.566 5.139,-4.433c0.405,-0.543 1.186,-0.802 1.598,-1.342c0.454,-0.594 0.78,-1.333 0.985,-2.059c0.404,-1.429 1.536,-2.187 2.643,-2.885c1.235,-0.78 2.952,-0.217 3.579,0.973c-0.05,0.066 -0.101,0.19 -0.151,0.19c-2.302,-0.012 -3.441,1.576 -4.595,3.227c-0.626,0.896 -1.451,1.653 -2.186,2.471c-1.079,1.201 -2.09,2.474 -3.261,3.576c-0.794,0.746 -1.841,1.215 -2.722,1.877c-0.517,0.388 -1.111,0.831 -1.363,1.388c-2.98,6.586 -6.793,12.622 -11.805,17.848c-1.404,1.464 -2.978,2.809 -5.195,3.158c0.166,0.908 0.333,1.822 0.468,2.563c2.472,-1.207 4.751,-2.561 7.199,-3.443c2.179,-0.785 4.54,-1.082 6.834,-1.526c0.96,-0.186 1.491,0.329 1.946,1.237c3.163,6.321 4.354,13.26 6.361,19.942c0.576,1.918 1.142,3.842 1.8,5.731c0.231,0.662 0.67,1.28 1.116,1.834c1.137,1.408 2.503,2.662 3.446,4.184c0.654,1.056 1.505,1.72 2.385,2.491c0.769,0.674 1.305,1.675 1.76,2.62c0.226,0.47 0.039,1.139 0.039,1.718c-0.146,0.026 -0.293,0.052 -0.44,0.077c-0.183,-0.302 -0.298,-0.702 -0.563,-0.886c-0.635,-0.442 -1.386,-0.722 -2.004,-1.182c-0.597,-0.443 -1.109,-1.01 -1.617,-1.561c-0.376,-0.408 -0.669,-0.891 -1.028,-1.316c-0.324,-0.381 -0.687,-0.731 -1.035,-1.093c-0.456,-0.473 -1.003,-0.887 -1.352,-1.429c-0.612,-0.951 -1.103,-1.98 -1.539,-3.02c-0.435,-0.603 -1.048,-1.144 -1.278,-1.817c-2.104,-6.164 -4.161,-12.344 -6.188,-18.533c-0.659,-2.012 -1.189,-4.065 -1.784,-6.119c-1.875,0.154 -3.563,0.759 -5.224,1.759c-1.656,0.995 -3.598,1.503 -5.361,2.336c-1.442,0.681 -2.878,1.426 -4.169,2.349c-0.519,0.371 -0.926,1.322 -0.093,1.981c0.854,0.675 1.714,1.385 2.676,1.873c3.581,1.816 6.837,4.031 9.374,7.192c1.067,1.331 1.533,2.725 1.423,4.569c-0.49,8.271 -0.775,16.554 -1.057,24.836c-0.025,0.719 0.481,1.469 0.792,2.183c0.133,0.304 0.444,0.527 0.597,0.827c0.925,1.814 1.817,3.645 2.748,5.456c0.146,0.285 0.396,0.562 0.669,0.728c1.552,0.946 2.162,2.498 2.56,4.121c0.136,0.556 -0.18,1.223 -0.331,2.075c-0.737,-1.058 -1.242,-1.812 -1.783,-2.54c-0.146,-0.198 -0.433,-0.479 -0.598,-0.445c-1.802,0.374 -1.632,-1.115 -2.003,-2.082c-0.074,-0.194 -0.001,-0.464 -0.109,-0.623c-0.791,-1.17 -1.414,-2.572 -2.476,-3.412c-1.18,-0.932 -1.341,-2.086 -1.64,-3.308c-0.086,-0.354 -0.165,-0.917 -0.387,-0.996c-1.174,-0.423 -0.767,-1.198 -0.674,-2.041c0.258,-2.329 0.495,-4.669 0.549,-7.009c0.124,-5.295 0.124,-10.593 0.2,-15.89c0.009,-0.59 0.053,-1.249 0.318,-1.751c0.748,-1.423 0.02,-2.285 -1.046,-2.965c-1.398,-0.892 -2.912,-1.606 -4.294,-2.521c-1.979,-1.312 -3.883,-2.738 -5.821,-4.113c-0.396,-0.282 -0.799,-0.554 -1.248,-0.865c-0.646,1.439 -1.268,2.7 -1.766,4.007c-0.143,0.375 0.067,0.885 0.116,1.334c0.12,1.083 0.174,2.18 0.392,3.244c0.089,0.431 0.447,0.944 0.829,1.157c3.114,1.733 5.577,4.105 7.108,7.328c1.895,3.99 2.131,8.224 1.52,12.534c-0.745,5.255 -2.537,10.219 -5.033,14.823c-2.34,4.316 -4.785,8.646 -8.197,12.285c-0.258,0.275 -0.533,0.533 -0.8,0.798l-1.539,0Z" style="fill:#75d020;fill-rule:nonzero;"/></svg>