<?xml version="1.0" encoding="UTF-8" standalone="no"?><!DOCTYPE svg PUBLIC "-//W3C//DTD SVG 1.1//EN" "http://www.w3.org/Graphics/SVG/1.1/DTD/svg11.dtd"><svg width="100%" height="100%" viewBox="0 0 80 109" version="1.1" xmlns="http://www.w3.org/2000/svg" xmlns:xlink="http://www.w3.org/1999/xlink" xml:space="preserve" style="fill-rule:evenodd;clip-rule:evenodd;stroke-linejoin:round;stroke-miterlimit:1.41421;"><path d="M78.915,-0.012c0.594,0.431 0.443,0.738 -0.169,0.945c-3.034,1.027 -6.111,1.941 -9.093,3.1c-4.367,1.697 -9.067,2.434 -13.236,4.691c-3.343,1.81 -6.706,3.582 -10.086,5.322c-1.183,0.609 -1.946,1.462 -2.207,2.773c-0.082,0.411 -0.25,0.806 -0.374,1.209c-0.439,1.432 0.149,2.51 1.636,3.001c1.902,0.627 2.546,2.041 1.774,3.886c-0.15,0.357 -0.295,0.715 -0.442,1.073c-0.008,0.089 -0.016,0.178 -0.025,0.266c0.084,-0.029 0.168,-0.058 0.251,-0.086c2.036,-1.855 4.072,-3.71 6.234,-5.679c-1.151,-0.772 -2.185,-1.467 -3.219,-2.16c-1.271,-0.852 -1.295,-0.95 -0.61,-2.256c0.229,-0.436 0.428,-0.888 0.645,-1.331c1.016,-2.074 2.827,-3.128 4.9,-3.886c1.484,-0.542 3.347,-0.499 3.909,-2.768c0.22,0.452 0.343,0.591 0.35,0.735c0.042,0.901 0.07,1.802 0.076,2.704c0.002,0.255 -0.082,0.511 -0.127,0.766c-0.237,-0.085 -0.472,-0.178 -0.712,-0.251c-0.275,-0.084 -0.566,-0.24 -0.832,-0.208c-1.594,0.19 -3.017,0.62 -4.054,2.063c-0.616,0.859 -1.614,1.442 -2.478,2.181c1.501,1.174 2.673,2.124 3.882,3.023c0.67,0.499 0.689,1.091 0.62,1.861c-0.134,1.481 -0.92,2.492 -1.949,3.46c-1.338,1.259 -2.547,2.654 -3.874,3.926c-0.597,0.572 -0.611,1.006 -0.199,1.699c1.226,2.059 2.467,4.12 3.507,6.275c0.499,1.036 0.565,2.282 0.815,3.436c0.097,0.447 0.074,0.943 0.267,1.337c0.143,0.291 0.545,0.639 0.835,0.643c1.377,0.019 2.76,-0.163 4.132,-0.095c1.255,0.062 2.513,0.288 3.742,0.563c0.994,0.222 1.385,0.984 1.364,1.995c-0.036,1.847 -0.253,3.655 -0.943,5.387c-0.14,0.351 -0.205,0.732 -0.321,1.158c0.625,0.211 1.179,0.405 1.737,0.585c1.097,0.354 1.86,-0.318 1.716,-1.469c-0.034,-0.273 0.079,-0.565 0.124,-0.848c0.255,0.139 0.604,0.214 0.749,0.428c0.664,0.975 1.282,1.981 1.884,2.996c0.079,0.132 -0.032,0.377 -0.054,0.564c-0.684,-0.175 -1.326,-0.518 -1.909,-0.438c-0.582,0.08 -1.085,0.628 -1.66,0.893c-1.447,0.668 -2.717,0.06 -3.831,-0.77c-1.716,-1.277 -1.677,-1.33 -0.998,-3.364c0.5,-1.499 1.001,-2.998 1.58,-4.729c-2.602,0.23 -5.033,0.446 -7.517,0.666c0.218,2.201 0.506,4.4 0.64,6.609c0.207,3.421 0.354,6.847 0.433,10.272c0.03,1.337 0.348,2.443 1.234,3.481c1.307,1.529 2.385,3.26 3.736,4.744c1.413,1.553 1.394,3.266 0.899,5.043c-1.569,5.64 -3.317,11.219 -5.76,16.562c-0.551,1.205 -0.783,2.552 -1.226,3.811c-0.225,0.637 -0.638,1.206 -0.878,1.839c-0.114,0.298 -0.095,0.693 -0.014,1.014c0.799,3.201 1.624,6.395 2.434,9.593c0.022,0.087 -0.048,0.198 -0.071,0.284c-1.098,-0.176 -2.186,-0.349 -3.333,-0.533c-0.007,0.037 -0.026,-0.125 0.045,-0.208c1.215,-1.405 1.313,-2.878 0.357,-4.509c-0.277,-0.471 -0.468,-1.017 -0.583,-1.553c-0.311,-1.447 -0.483,-2.927 -0.86,-4.354c-0.233,-0.887 -0.14,-1.635 0.212,-2.446c2.754,-6.338 5.335,-12.741 7.468,-19.321c0.327,-1.009 0.369,-1.624 -0.526,-2.442c-1.102,-1.009 -1.882,-2.37 -2.809,-3.572c-0.166,-0.215 -0.371,-0.398 -0.663,-0.707c-0.379,2.309 -0.665,4.495 -1.116,6.647c-0.287,1.367 -0.808,2.687 -1.242,4.022c-0.335,1.034 -0.788,2.037 -1.034,3.09c-1.076,4.611 -2.913,8.857 -6.101,12.395c-0.997,1.107 -2.279,2.006 -3.553,2.803c-1.995,1.248 -4.03,0.975 -5.997,-0.223c-2.976,-1.813 -4.948,-4.516 -6.482,-7.531c-1.342,-2.64 -2.443,-5.399 -2.858,-8.375c-0.034,-0.242 -0.091,-0.499 -0.209,-0.708c-2.107,-3.704 -2.276,-7.888 -3.01,-12.154c-0.51,0.578 -0.947,1.048 -1.357,1.541c-0.942,1.137 -1.911,2.255 -2.777,3.449c-0.202,0.279 -0.156,0.873 -0.017,1.244c2.347,6.23 4.65,12.479 7.148,18.649c0.692,1.71 0.886,3.24 0.35,4.967c-0.29,0.935 -0.29,1.957 -0.536,2.909c-0.217,0.836 -0.598,1.63 -0.902,2.444c-0.512,1.373 -0.625,2.673 0.667,3.728c0.065,0.053 0.062,0.189 0.075,0.234c-1.097,0.162 -2.183,0.322 -3.395,0.501c0.014,-0.205 -0.001,-0.502 0.058,-0.783c0.465,-2.204 0.906,-4.413 1.437,-6.602c0.214,-0.881 0.68,-1.699 0.932,-2.574c0.089,-0.307 -0.074,-0.716 -0.201,-1.048c-0.144,-0.38 -0.429,-0.708 -0.562,-1.09c-0.707,-2.023 -1.248,-4.117 -2.101,-6.076c-2.12,-4.865 -3.623,-9.931 -5.063,-15.017c-0.492,-1.739 -0.453,-3.416 0.916,-4.94c1.46,-1.625 2.757,-3.406 4.021,-5.193c0.463,-0.653 0.89,-1.522 0.882,-2.288c-0.062,-5.813 0.426,-11.583 1.145,-17.342c0.012,-0.096 -0.016,-0.198 -0.025,-0.291c-2.433,-0.214 -4.844,-0.426 -7.489,-0.658c0.347,1.034 0.633,1.88 0.915,2.727c0.233,0.703 0.46,1.408 0.691,2.112c0.616,1.869 0.674,1.945 -0.873,3.118c-1.806,1.368 -3.194,1.6 -4.827,0.438c-0.693,-0.493 -0.723,-0.452 -2.721,0.019c-0.032,-0.164 -0.146,-0.374 -0.083,-0.48c0.636,-1.074 1.284,-2.143 1.975,-3.183c0.12,-0.181 0.453,-0.222 0.687,-0.327c0.053,0.251 0.176,0.51 0.146,0.751c-0.166,1.371 0.555,1.946 1.885,1.482c0.462,-0.161 0.933,-0.296 1.537,-0.485c-0.317,-1.113 -0.724,-2.198 -0.92,-3.32c-0.21,-1.206 -0.268,-2.445 -0.304,-3.672c-0.025,-0.856 0.549,-1.41 1.327,-1.572c1.269,-0.263 2.559,-0.49 3.849,-0.559c1.301,-0.069 2.614,0.056 3.92,0.129c0.59,0.034 0.952,-0.116 0.996,-0.77c0.022,-0.313 0.215,-0.629 0.184,-0.929c-0.225,-2.227 0.844,-4.019 1.899,-5.823c0.837,-1.431 1.64,-2.882 2.497,-4.301c0.357,-0.592 0.384,-0.992 -0.172,-1.532c-1.675,-1.624 -3.245,-3.356 -4.915,-4.986c-1.003,-0.978 -0.843,-2.246 -1.002,-3.426c-0.036,-0.268 0.366,-0.661 0.65,-0.893c1.169,-0.952 2.37,-1.864 3.672,-2.879c-1.542,-1.163 -2.286,-3.134 -4.206,-3.846c-0.75,-0.278 -1.548,-0.451 -2.339,-0.582c-0.219,-0.036 -0.483,0.275 -0.744,0.384c-0.177,0.073 -0.403,0.133 -0.571,0.081c-0.109,-0.033 -0.23,-0.284 -0.217,-0.425c0.105,-1.123 0.242,-2.242 0.377,-3.438c0.127,0.101 0.364,0.191 0.396,0.329c0.24,1.023 1.065,1.281 1.908,1.579c1.356,0.48 2.78,0.864 4.008,1.578c0.903,0.524 1.613,1.452 2.267,2.309c0.548,0.719 0.894,1.593 1.325,2.401c0.382,0.717 -0.049,1.126 -0.58,1.482c-1.14,0.765 -2.286,1.521 -3.583,2.382c2.134,1.947 4.186,3.819 6.238,5.692c0.092,0.091 0.184,0.183 0.276,0.274c-0.015,-0.15 -0.03,-0.299 -0.045,-0.449c-0.211,-0.522 -0.449,-1.034 -0.626,-1.567c-0.465,-1.403 0.288,-2.767 1.64,-3.339c0.75,-0.317 1.423,-0.858 2.052,-1.392c0.178,-0.151 0.166,-0.653 0.089,-0.956c-0.233,-0.921 -0.474,-1.851 -0.842,-2.723c-0.221,-0.523 -0.585,-1.114 -1.052,-1.387c-5.693,-3.322 -11.459,-6.504 -17.755,-8.576c-0.834,-0.275 -1.734,-0.354 -2.564,-0.636c-3.708,-1.259 -7.402,-2.56 -11.101,-3.845c-0.632,-0.219 -1.265,-0.439 -1.9,-0.649c-0.509,-0.168 -0.679,-0.451 -0.348,-0.929l1.698,0c0.032,0.058 0.055,0.158 0.097,0.167c2.031,0.443 4.089,0.786 6.086,1.346c1.373,0.386 2.617,1.341 3.997,1.569c3.266,0.54 6.142,2.016 9.119,3.286c1.702,0.727 3.525,1.185 5.187,1.987c2.155,1.041 4.149,2.419 6.313,3.44c2.442,1.152 4.177,2.813 4.919,5.441c0.012,0.045 0.106,0.066 0.053,0.035c0.734,-0.318 1.401,-0.839 2.06,-0.828c0.656,0.012 1.302,0.558 1.97,0.878c0.119,-0.286 0.257,-0.573 0.358,-0.872c0.626,-1.863 1.774,-3.233 3.59,-4.075c3.685,-1.709 6.941,-4.177 10.955,-5.371c3.641,-1.084 6.888,-3.395 10.778,-3.915c0.234,-0.031 0.443,-0.213 0.674,-0.298c1.411,-0.522 2.807,-1.093 4.243,-1.536c1.556,-0.481 3.15,-0.841 4.728,-1.254l1.91,0Z" style="fill:#75d020;fill-rule:nonzero;"/></svg>