<?xml version="1.0" encoding="UTF-8" standalone="no"?><!DOCTYPE svg PUBLIC "-//W3C//DTD SVG 1.1//EN" "http://www.w3.org/Graphics/SVG/1.1/DTD/svg11.dtd"><svg width="100%" height="100%" viewBox="0 0 156 105" version="1.1" xmlns="http://www.w3.org/2000/svg" xmlns:xlink="http://www.w3.org/1999/xlink" xml:space="preserve" style="fill-rule:evenodd;clip-rule:evenodd;stroke-linejoin:round;stroke-miterlimit:1.41421;"><path d="M128.443,99.083c-0.194,-0.153 -0.279,-0.253 -0.387,-0.292c-0.062,-0.022 -0.16,0.054 -0.241,0.086c0.054,0.096 0.088,0.242 0.167,0.273c0.094,0.036 0.226,-0.027 0.461,-0.067m-128.455,-39.219c0.439,-1.883 0.847,-3.774 1.322,-5.648c2.266,-8.928 6.761,-16.706 12.295,-23.97c4.055,-5.323 8.799,-9.913 14.191,-13.849c6.621,-4.834 13.245,-9.663 19.9,-14.448c1.057,-0.76 2.252,-1.366 3.456,-1.864c0.453,-0.187 1.342,-0.052 1.615,0.28c0.243,0.295 0.06,1.155 -0.208,1.603c-0.377,0.631 -0.955,1.176 -1.535,1.649c-6.987,5.693 -14.123,11.212 -20.96,17.078c-11.172,9.586 -19.293,21.215 -22.568,35.803c-1.515,6.745 -1.519,13.401 1.531,19.871c5.698,12.088 20.263,17.147 32.117,10.976c2.648,-1.379 4.477,-3.524 4.427,-6.701c-0.123,-7.827 3.347,-14.283 7.869,-20.233c5.529,-7.274 13.147,-11.737 21.538,-14.936c7.507,-2.863 15.272,-4.715 23.34,-4.904c7.898,-0.186 15.276,1.41 21.44,6.821c1.978,1.735 4.053,3.395 7.071,3.53c0.076,-0.381 0.19,-0.795 0.236,-1.216c0.489,-4.475 3.4,-7.153 7.609,-6.986c3.788,0.15 7.06,3.444 7.197,7.45c0.047,1.385 -0.127,2.868 -0.6,4.16c-0.674,1.844 -0.252,3.183 1.04,4.519c4.034,4.168 7.111,8.991 8.833,14.515c1.35,4.33 2.219,8.812 3.268,13.234c0.42,1.77 0.887,3.548 1.071,5.349c0.111,1.092 -0.106,2.306 -0.517,3.327c-0.211,0.523 -1.143,0.814 -1.801,1.083c-0.734,0.3 -1.627,0.3 -2.276,0.708c-1.69,1.062 -3.476,1.185 -5.241,0.554c-2.084,-0.746 -4.1,-1.695 -6.102,-2.646c-2.422,-1.15 -4.877,-1.875 -7.612,-1.485c-1.586,0.226 -3.21,0.192 -4.89,0.562c0.806,0.419 1.642,0.789 2.41,1.268c1.051,0.654 1.058,1.264 0.077,2.052c1.183,1.036 2.006,2.22 1.694,3.948c-1.014,-0.83 -1.891,-1.55 -2.768,-2.268c-0.127,0.038 -0.253,0.076 -0.379,0.114c0.69,1.219 0.882,2.239 -0.849,2.54c-1.063,-1.01 -1.321,-3.046 -3.376,-3.014c0.257,1.275 0.512,2.54 0.767,3.805c-0.085,0.118 -0.17,0.237 -0.255,0.355c-0.466,-0.275 -1.108,-0.437 -1.369,-0.844c-1.176,-1.832 -2.951,-2.608 -4.908,-3.308c-1.27,-0.455 -2.344,-1.446 -3.532,-2.153c-0.434,-0.258 -0.961,-0.586 -1.418,-0.548c-5.24,0.437 -10.474,0.937 -16.032,1.451c0.966,0.966 1.828,2.029 2.885,2.833c1.208,0.919 1.488,1.437 0.99,2.448c-1.021,-0.511 -2.047,-1.024 -3.074,-1.537c-0.094,0.128 -0.189,0.256 -0.283,0.384c0.57,0.818 1.888,1.444 0.748,2.835c-0.54,-1.27 -1.403,-1.449 -2.663,-1.355c-0.855,0.064 -2.049,-0.451 -2.608,-1.115c-2.125,-2.523 -4.825,-2.849 -7.85,-2.507c1.456,1.748 4.245,2.556 4.019,5.566c-0.902,-0.616 -1.595,-1.121 -2.32,-1.575c-0.596,-0.374 -1.317,-0.591 -1.831,-1.047c-2.265,-2.009 -4.965,-2.681 -7.877,-2.572c-4.581,0.172 -8.806,-0.94 -12.771,-3.193c-0.51,-0.29 -1.133,-0.474 -1.719,-0.523c-4.033,-0.34 -7.709,-1.68 -10.924,-4.101c-1.259,-0.948 -2.474,-1.035 -3.789,-0.559c-2.038,0.735 -4.062,1.525 -6.038,2.411c-9.09,4.08 -17.93,3.32 -26.478,-1.479c-5.003,-2.809 -9.35,-6.425 -12.13,-11.591c-1.824,-3.389 -2.551,-7.113 -3.074,-10.884c-0.043,-0.31 -0.218,-0.602 -0.331,-0.902c0,-3.04 0,-6.08 0,-9.121" style="fill:#75d020;fill-rule:nonzero;"/></svg>