<?xml version="1.0" encoding="UTF-8" standalone="no"?><!DOCTYPE svg PUBLIC "-//W3C//DTD SVG 1.1//EN" "http://www.w3.org/Graphics/SVG/1.1/DTD/svg11.dtd"><svg width="100%" height="100%" viewBox="0 0 158 85" version="1.1" xmlns="http://www.w3.org/2000/svg" xmlns:xlink="http://www.w3.org/1999/xlink" xml:space="preserve" style="fill-rule:evenodd;clip-rule:evenodd;stroke-linejoin:round;stroke-miterlimit:1.41421;"><path d="M62.381,58.784c-0.041,0.041 -0.075,0.075 -0.11,0.109c0.069,0.034 0.134,0.08 0.206,0.096c0.026,0.006 0.067,-0.062 0.101,-0.096c-0.066,-0.037 -0.133,-0.073 -0.197,-0.109m-3.575,-49.267c0.203,0.052 0.407,0.105 0.611,0.158c0.852,-1.903 0.993,-3.989 1.343,-6.021c-0.132,-0.034 -0.264,-0.068 -0.396,-0.102c-0.519,1.988 -1.039,3.977 -1.558,5.965m7.122,0.741c-0.973,-1.271 -1.753,-2.29 -2.664,-3.479c-0.227,1.159 -0.407,2.078 -0.601,3.073c1.073,0.133 2,0.248 3.265,0.406m11.6,-2.642l0,4.8c2.157,-1.06 2.159,-2.134 0,-4.8m79.573,59.41c-4.092,-0.487 -8.251,-0.675 -12.25,-1.575c-2.292,-0.516 -4.426,-2.033 -6.455,-3.366c-6.4,-4.205 -11.962,-9.399 -17.193,-14.965c-0.831,-0.885 -1.884,-1.563 -2.695,-2.463c-0.929,-1.032 -1.997,-2.087 -2.493,-3.335c-1.839,-4.638 -3.468,-9.36 -5.214,-14.156c-0.469,0.084 -0.895,0.161 -1.275,0.23c-0.056,0.188 -0.122,0.286 -0.101,0.361c2.169,8.015 3.975,16.152 7.798,23.619c0.276,0.54 0.598,1.079 1.001,1.525c9.213,10.158 19.464,19.126 30.932,26.656c1.578,1.036 3.521,1.52 5.308,2.226c0.546,0.215 1.136,0.318 1.803,0.499c-0.484,1.272 -1.051,1.791 -2.351,1.336c-4.012,-1.404 -7.574,-3.633 -10.793,-6.296c-7.836,-6.482 -15.54,-13.126 -23.253,-19.754c-4.468,-3.839 -6.895,-8.803 -8.158,-14.532c-1.085,-4.922 -2.61,-9.75 -4.025,-14.595c-0.198,-0.678 -0.825,-1.268 -1.352,-1.802c-0.639,-0.649 -1.383,-1.194 -2.079,-1.787c-0.484,-0.413 -0.963,-0.831 -1.151,-0.994c-1.065,1.211 -2.009,2.258 -2.922,3.331c-0.781,0.918 -1.523,1.87 -2.289,2.8c-0.649,0.786 -1.289,1.581 -1.967,2.341c-1.075,1.205 -2.287,1.287 -3.727,0.578c-0.577,-0.284 -1.431,-0.338 -2.045,-0.142c-1.704,0.546 -2.44,0.457 -3.327,-1.119c-0.665,-1.183 -1.25,-2.478 -1.529,-3.795c-0.358,-1.69 -1.022,-3.036 -2.49,-3.989c-1.223,-0.794 -2.395,-1.669 -3.868,-2.704c-1.726,6.727 -3.369,13.127 -5.009,19.527c-0.493,1.926 -0.932,3.867 -1.484,5.776c-0.236,0.82 -0.616,1.623 -1.066,2.351c-2.945,4.767 -5.934,9.507 -8.891,14.268c-0.861,1.386 -1.765,2.761 -2.469,4.227c-2.635,5.493 -6.743,9.681 -11.525,13.304c-1.262,0.956 -2.443,2.023 -3.718,2.96c-0.462,0.34 -1.079,0.574 -1.646,0.625c-0.36,0.033 -0.759,-0.36 -1.14,-0.561c0.226,-0.354 0.375,-0.811 0.691,-1.044c2.622,-1.942 5.341,-3.758 7.901,-5.778c2.5,-1.972 4.535,-4.379 6.063,-7.223c1.64,-3.055 3.431,-6.029 5.148,-9.043c0.234,-0.41 0.416,-0.849 0.363,-1.483c-0.278,0.228 -0.589,0.426 -0.828,0.69c-1.407,1.553 -2.883,3.054 -4.177,4.697c-3.296,4.186 -7.534,7.147 -12.159,9.636c-1.123,0.604 -2.253,1.194 -3.362,1.821c-1.136,0.643 -2.03,0.513 -2.695,-0.787c0.212,-0.197 0.392,-0.508 0.638,-0.575c7.312,-2.002 12.754,-6.597 17.496,-12.299c3.463,-4.164 7.189,-8.109 10.769,-12.177c1.286,-1.462 2.249,-3.036 2.577,-5.084c1.153,-7.208 2.484,-14.388 3.742,-21.58c0.051,-0.292 0.044,-0.594 0.073,-1.039c-3.516,1.235 -6.844,2.721 -10.328,3.537c-3.521,0.825 -5.224,2.505 -5.617,6.204c-0.474,4.452 -1.654,8.824 -2.405,13.252c-0.312,1.841 -1.143,3.178 -2.388,4.594c-4.147,4.716 -8.296,9.472 -11.964,14.559c-4.069,5.645 -9.208,9.762 -15.358,12.793c-2.698,1.329 -5.362,2.727 -8.057,4.064c-1.355,0.672 -2.155,0.573 -3.589,-0.434c0.584,-0.326 1.072,-0.602 1.564,-0.874c5.708,-3.15 11.453,-6.235 17.111,-9.473c3.037,-1.738 5.013,-4.622 7.111,-7.328c4.163,-5.372 8.311,-10.755 12.448,-16.147c0.333,-0.433 0.663,-0.945 0.766,-1.465c1.104,-5.606 2.164,-11.22 3.228,-16.835c0.025,-0.131 -0.044,-0.28 -0.068,-0.417c-1.527,-0.101 -1.957,0.667 -2.12,2.074c-0.515,4.461 -1.158,8.91 -1.84,13.35c-0.108,0.697 -0.547,1.455 -1.056,1.961c-3.55,3.532 -7.229,6.937 -10.728,10.518c-3.286,3.364 -6.48,6.827 -9.563,10.377c-1.759,2.025 -3.843,3.486 -6.206,4.627c-6.379,3.081 -12.758,6.162 -19.154,9.206c-0.957,0.456 -1.985,0.808 -3.017,1.046c-1.597,0.367 -2.319,-0.122 -3.004,-1.845c0.191,-0.058 0.389,-0.189 0.561,-0.161c2.89,0.477 5.224,-0.965 7.652,-2.146c5.819,-2.829 11.693,-5.545 17.464,-8.465c1.508,-0.762 2.858,-1.973 4.052,-3.199c6.743,-6.92 13.438,-13.889 20.082,-20.904c0.64,-0.676 1.025,-1.756 1.176,-2.705c0.669,-4.222 1.211,-8.465 1.812,-12.798c-2.956,0.254 -5.737,0.659 -8.522,0.687c-3.359,0.034 -6.726,-0.199 -10.079,-0.448c-0.644,-0.049 -1.722,-0.676 -1.751,-1.096c-0.044,-0.637 0.492,-1.584 1.066,-1.943c1.545,-0.964 3.236,-1.695 4.878,-2.498c0.434,-0.212 0.902,-0.353 1.303,-0.739c-1.47,0 -2.942,-0.047 -4.41,0.011c-2.143,0.084 -4.286,0.376 -6.424,0.331c-2.067,-0.043 -2.723,-1.401 -1.706,-3.223c0.318,-0.572 0.862,-1.014 1.207,-1.574c0.409,-0.663 0.636,-1.447 1.085,-2.076c0.512,-0.718 1.075,-1.498 1.802,-1.949c3.72,-2.302 7.955,-3.153 12.167,-3.888c3.664,-0.64 7.391,-0.925 11.098,-1.289c0.838,-0.082 1.227,-0.243 1.39,-1.17c0.37,-2.106 0.842,-4.203 1.419,-6.263c0.598,-2.132 1.909,-2.665 3.983,-1.829c0.343,0.139 0.759,0.316 1.084,0.238c2.003,-0.481 2.889,-0.132 3.756,1.715c1.125,2.399 2.246,4.803 3.264,7.249c0.424,1.019 1.022,1.508 2.109,1.622c1.058,0.111 2.098,0.398 3.37,0.652c0,-1.928 -0.039,-3.748 0.016,-5.565c0.028,-0.938 -0.099,-2.169 1.178,-2.354c1.272,-0.184 2.736,-0.798 3.765,0.66c2.381,-1.444 4.18,-1.342 5.547,0.998c1.65,2.822 3.795,4.05 7.008,3.982c2.269,-0.048 4.222,1.057 6.009,2.619c0.719,-1.119 1.371,-2.209 2.101,-3.245c0.644,-0.914 1.306,-1.836 2.086,-2.631c1.054,-1.074 2.03,-0.994 2.968,0.181c0.404,0.507 0.695,1.125 0.942,1.731c0.326,0.8 0.613,1.626 0.821,2.464c0.618,2.493 1.454,4.808 3.521,6.576c0.893,0.764 1.408,1.97 2.144,3.048c6.393,-1.339 12.18,-4.174 17.763,-7.485c2.15,-1.275 4.235,-2.659 6.385,-3.933c0.597,-0.354 1.321,-0.492 2.034,-0.583c-7.84,5.772 -16.258,10.384 -25.422,13.385c-0.208,1.14 0.272,1.463 1.215,1.549c4.809,0.436 9.338,-0.677 13.72,-2.495c2.634,-1.093 5.208,-2.335 7.79,-3.55c2.342,-1.103 4.799,-1.486 7.435,-1.218c-0.181,0.108 -0.358,0.302 -0.545,0.312c-3.414,0.178 -6.394,1.655 -9.36,3.145c-5.091,2.557 -10.309,4.704 -16.076,5.1c-1.378,0.095 -2.768,0.014 -4.212,0.357c9.837,5.229 20.542,7.998 30.985,11.452c-0.051,0.236 -0.102,0.472 -0.153,0.708c-1.349,-0.17 -2.768,-0.127 -4.035,-0.543c-9.001,-2.956 -17.972,-6.007 -26.954,-9.021c-0.129,-0.043 -0.284,-0.006 -0.518,-0.006c2.494,7.643 5.554,14.843 11.262,20.745c4.98,5.148 10.683,9.371 16.401,13.561c4.09,2.998 9.013,3.611 14.028,3.467c0.78,-0.023 1.576,0.545 2.365,0.84l0,0.921Z" style="fill:#75d020;fill-rule:nonzero;"/></svg>